# xmcd CD database file
#
# Track frame offsets:
#	150
#	21026
#	47178
#	68706
#	108607
#	139381
#
# Disc length: 2243 seconds
#
# Revision: 0
# Processed by: cddbd v1.5.1PL0 Copyright (c) Steve Scherf et al.
# Submitted via: CDex 1.51
#
DISCID=5408c106
DTITLE=Oliver Nelson - The Blues and the Abstract Truth
DYEAR=1900
DGENRE=Jazz
TTITLE0=Butch and Butch
TTITLE1=Cascades
TTITLE2=Hoe Down
TTITLE3=Stolen Moments
TTITLE4=Teenie's Blues
TTITLE5=Yearnin'
EXTD=
EXTT0=
EXTT1=
EXTT2=
EXTT3=
EXTT4=
EXTT5=
PLAYORDER=
